#!OML:ASF F:\VICON\USERDATA\Patient Classification 1\PLAYGROUND\JustinFriday\JustinFriday.ASF
:FULLY-SPECIFIED
:DEGREES
1902
root 13.1625 19.0137 52.2073 181.421 13.5103 -174.782
lowerback 49.5568 1.67914 -3.39601
upperback -3.03865 1.12634 0.630198
thorax -25.507 1.18248 1.59363
lowerneck -21.4475 -1.94676 -20.3324
upperneck 38.929 5.59706 8.76545
head 17.2594 1.46767 9.07521
rclavicle -8.74653e-015 -1.27222e-014
rhumerus 44.2358 14.1921 -77.6191
rradius 54.3951
rwrist 13.5631
rhand -27.6728 -1.8503
rfingers 7.12502
rthumb -1.06988 -31.8274
lclavicle -8.74653e-015 -1.27222e-014
lhumerus 37.8182 2.14239 52.5517
lradius 50.1242
lwrist -14.3661
lhand -7.86827 -16.7796
lfingers 7.12502
lthumb 18.0356 12.4042
rfemur -0.210021 -5.89726 31.1027
rtibia 7.95139e-016
rfoot 0.188288 -18.6288
rtoes 31.6809
lfemur -61.4726 24.704 -18.313
ltibia 91.5136
lfoot -24.4582 -11.9119
ltoes 13.7793
1903
root 13.1356 19.0608 52.1635 181.252 13.5091 -175.062
lowerback 49.4797 1.69417 -3.57225
upperback -3.02293 1.02498 0.570786
thorax -25.4592 1.16333 1.66572
lowerneck -21.1473 -1.83682 -20.6505
upperneck 38.664 5.53716 9.286
head 17.0001 1.50082 9.30993
rclavicle 7.95139e-015 2.62396e-014
rhumerus 43.5738 14.3422 -77.5055
rradius 54.6654
rwrist 13.4852
rhand -27.7621 -1.72202
rfingers 7.12502
rthumb -1.15612 -31.6986
lclavicle 7.95139e-015 2.62396e-014
lhumerus 36.3568 1.52597 52.2001
lradius 51.9794
lwrist -13.6534
lhand -7.67583 -15.877
lfingers 7.12502
lthumb 18.2207 13.2896
rfemur -0.0391355 -5.93726 30.5454
rtibia 3.80673e-014
rfoot 0.853957 -18.7969
rtoes 31.362
lfemur -60.7044 24.4245 -18.5715
ltibia 90.9578
lfoot -24.3726 -11.9387
ltoes 14.5621
1904
root 13.1034 19.1146 52.1216 181.19 13.5032 -175.133
lowerback 49.4148 1.69324 -3.51532
upperback -3.05111 1.05786 0.592723
thorax -25.4892 1.16717 1.6485
lowerneck -20.6496 -2.05809 -21.0971
upperneck 38.4975 5.07629 9.66068
head 16.8624 1.32022 9.44676
rclavicle 1.66979e-014 1.59028e-014
rhumerus 42.8769 14.4621 -77.1537
rradius 54.898
rwrist 13.3838
rhand -27.838 -1.66531
rfingers 7.12502
rthumb -1.22946 -31.6415
lclavicle 1.66979e-014 1.59028e-014
lhumerus 36.3389 1.79716 53.937
lradius 51.8192
lwrist -14.8558
lhand -7.30139 -16.2516
lfingers 7.12502
lthumb 18.5809 12.881
rfemur 0.0434905 -5.96643 30.1684
rtibia -6.65929e-015
rfoot 1.24616 -19.04
rtoes 31.5485
lfemur -60.0647 24.2834 -18.6742
ltibia 90.4119
lfoot -24.2207 -12.062
ltoes 15.3997
1905
root 13.0701 19.1783 52.0776 181.311 13.4904 -174.846
lowerback 49.2708 1.57536 -3.20645
upperback -3.0393 1.10937 0.655431
thorax -25.4489 1.14981 1.55014
lowerneck -20.5988 -2.22784 -21.1434
upperneck 38.4486 4.7555 9.75097
head 16.8924 1.18866 9.44214
rclavicle -5.96354e-015 3.18055e-014
rhumerus 42.3507 14.6333 -76.8186
rradius 55.1013
rwrist 13.1364
rhand -27.9849 -1.63293
rfingers 7.12502
rthumb -1.37129 -31.6083
lclavicle -5.96354e-015 3.18055e-014
lhumerus 35.6294 1.70569 54.6341
lradius 52.7025
lwrist -15.2851
lhand -7.14965 -15.984
lfingers 7.12502
lthumb 18.7269 13.1345
rfemur -0.0205244 -5.97664 30.1724
rtibia -2.99171e-014
rfoot 2.29904 -19.3162
rtoes 31.2867
lfemur -59.5073 24.0372 -18.394
ltibia 89.8175
lfoot -24.386 -12.1006
ltoes 15.8506
1906
root 13.0363 19.2386 52.0269 181.397 13.4788 -174.629
lowerback 49.0969 1.45791 -3.00407
upperback -2.99429 1.09318 0.685486
thorax -25.3484 1.12035 1.50162
lowerneck -20.988 -2.35454 -20.6508
upperneck 38.6601 4.57281 9.49653
head 17.1687 1.11421 9.26199
rclavicle -2.38542e-015 -1.27222e-014
rhumerus 41.8509 14.8822 -76.461
rradius 55.3007
rwrist 12.7626
rhand -28.2564 -1.5657
rfingers 7.12502
rthumb -1.63353 -31.5392
lclavicle -2.38542e-015 -1.27222e-014
lhumerus 34.8236 1.48315 54.891
lradius 53.5094
lwrist -15.3681
lhand -7.27805 -15.5597
lfingers 7.12502
lthumb 18.6034 13.5707
rfemur -0.0473978 -5.99167 30.0721
rtibia -2.8625e-014
rfoot 3.25201 -19.6118
rtoes 31.5253
lfemur -58.7755 23.527 -18.1056
ltibia 89.1403
lfoot -24.7815 -12.0083
ltoes 16.6902
